/* XPM */
static char *result[] = {
/* columns rows colors chars-per-pixel */
"64 64 201 2 ",
"   c #1B1A0E",
".  c #17150C",
"X  c #141413",
"o  c #191614",
"O  c #1B1912",
"+  c #171718",
"@  c #2B0E1D",
"#  c #281917",
"$  c #34161A",
"%  c #371C19",
"&  c #3E2814",
"*  c #38311C",
"=  c #3C2823",
"-  c #4C3D1A",
";  c #484A0F",
":  c #564514",
">  c #60541D",
",  c #785B13",
"<  c #686212",
"1  c #7E7713",
"2  c #554A21",
"3  c #715D30",
"4  c #6E5C55",
"5  c #76625A",
"6  c #893506",
"7  c #983C09",
"8  c #F83009",
"9  c #FC2E16",
"0  c #FA3A19",
"q  c #FA3626",
"w  c #FD352C",
"e  c #8A410F",
"r  c #954808",
"t  c #A54306",
"y  c #A2560A",
"u  c #B15B0E",
"i  c #AC7313",
"p  c #F44A0E",
"a  c #FC5A0E",
"s  c #F44319",
"d  c #F5452D",
"f  c #F54729",
"g  c #FB4434",
"h  c #F64B39",
"j  c #F94A3D",
"k  c #F75B37",
"l  c #FC7921",
"z  c #ED6739",
"x  c #F66F3E",
"c  c #F47636",
"v  c #87746B",
"b  c #FD4741",
"n  c #F16B44",
"m  c #998C0D",
"M  c #8C8316",
"N  c #93831B",
"B  c #9F8D10",
"V  c #9F9511",
"C  c #AB8E05",
"Z  c #B68C0D",
"A  c #B98A0C",
"S  c #B98609",
"D  c #A79D0D",
"F  c #BC930C",
"G  c #BD990E",
"H  c #BE9407",
"J  c #B58A16",
"K  c #BB9513",
"L  c #B7A70F",
"P  c #BAB30F",
"I  c #BBA918",
"U  c #998D20",
"Y  c #C08E08",
"T  c #CA9502",
"R  c #CD9B04",
"E  c #CC9D0D",
"W  c #C39609",
"Q  c #D49D05",
"!  c #DA960D",
"~  c #DE9D0C",
"^  c #D59B06",
"/  c #C39311",
"(  c #CB9D10",
")  c #C49C16",
"_  c #DF9D11",
"`  c #E39C06",
"'  c #E0990B",
"]  c #F38716",
"[  c #ED9D11",
"{  c #FB9E15",
"}  c #CBA60D",
"|  c #C9AB09",
" . c #D6A304",
".. c #DAA404",
"X. c #D1AA06",
"o. c #DDAB06",
"O. c #D4A40D",
"+. c #DAA30A",
"@. c #DDAB0A",
"#. c #C4BE0A",
"$. c #D5B306",
"%. c #DCB406",
"&. c #DDBB04",
"*. c #D3B30B",
"=. c #DBB20C",
"-. c #DEBC08",
";. c #CAAB12",
":. c #DCA411",
">. c #C4BB15",
",. c #D6B513",
"<. c #E0A607",
"1. c #E3AD04",
"2. c #E2A90B",
"3. c #EBAD0A",
"4. c #EBA708",
"5. c #E4B404",
"6. c #EBB503",
"7. c #E5BC04",
"8. c #ECBC04",
"9. c #E5B309",
"0. c #EAB40A",
"q. c #E3BC0A",
"w. c #EABC0C",
"e. c #F3BD04",
"r. c #F3BD0A",
"t. c #F1B305",
"y. c #EEA913",
"u. c #F9AA12",
"i. c #EDB110",
"p. c #F9BB17",
"a. c #F48A2D",
"s. c #F2822B",
"d. c #F39E24",
"f. c #CDC70D",
"g. c #D8CE0E",
"h. c #D7C609",
"j. c #DCDA09",
"k. c #D7CD17",
"l. c #E4C305",
"z. c #EDC304",
"x. c #EBCB05",
"c. c #E5C40B",
"v. c #EBC30A",
"b. c #E6CB09",
"n. c #ECCC0C",
"m. c #E7CF04",
"M. c #F5C404",
"N. c #F9C404",
"B. c #F4CC05",
"V. c #FCCC05",
"C. c #F4C30B",
"Z. c #F4CD0C",
"A. c #FBCC0B",
"S. c #EED906",
"D. c #E3D70B",
"F. c #ECD30B",
"G. c #E4D607",
"H. c #F4D405",
"J. c #FCD405",
"K. c #F4DA05",
"L. c #FBDC05",
"P. c #F4D40A",
"I. c #FCD50A",
"U. c #F3DA0B",
"Y. c #FCDB0B",
"T. c #E1C311",
"R. c #EACD13",
"E. c #F1C410",
"W. c #F2CC12",
"Q. c #EDD116",
"!. c #EADC14",
"~. c #E5DE16",
"^. c #F7D610",
"/. c #F7DE10",
"(. c #F9DB12",
"). c #F9D21C",
"_. c #EDE606",
"`. c #F5E405",
"'. c #FDE305",
"]. c #F6EA06",
"[. c #FEEB05",
"{. c #F5E40B",
"}. c #FDE30B",
"|. c #F5EA0C",
" X c #FDEB0A",
".X c #FEF305",
"XX c #F7F10E",
"oX c #FDF20A",
"OX c #F7F206",
"+X c #F5E513",
"@X c #FCE410",
"#X c #FEEB11",
"$X c #F8EB1B",
"%X c #FAF114",
"&X c #FBF119",
"*X c #F7F311",
"=X c #ADA046",
"-X c #928678",
";X c #BCB182",
":X c #C0B896",
">X c 0",
/* pixels */
">X>X>X>X>X>X>X>X>X>X>X>X>X>X>X>X>X>X>X>X>X>X>X>X>X>X>X>X>X>X>X>X>X>X>X>X>X>X>X>X>X>X>X>X>X>X>X>X>X>X>X>X>X>X>X>X>X>X>X>X>X>X>X>X",
">X>X>X>X>X>X>X>X>X>X>X>X>X>X>X>X>X>X>X>X>X>X>X>X>X>X>X>X>X>X>X>X>X>X>X>X>X>X>X>X>X>X>X>X>X>X>X>X>X>X>X>X>X>X>X>X>X>X>X>X>X>X>X>X",
">X>X>X>X>X>X>X>X>X>X>X>X>X>X>X>X>X>X>X>X>X>X>X>X>X>X>X>X>X>X>X>X>X>X>X>X>X>X>X>X>X>X>X>X>X>X>X>X>X>X>X>X>X>X>X>X>X>X>X>X>X>X>X>X",
">X>X>X>X>X>X>X>X>X>X>X>X>X>X>X>X>X>X>X>X>X>X>X>X>X>X>X>X>X>X>X>X>X>X>X>X>X>X>X>X>X>X>X>X>X>X>X>X>X>X>X>X>X>X>X>X>X>X>X>X>X>X>X>X",
">X>X>X>X>X>X>X>X>X>X>X>X>X>X>X>X>X>X>X>X>X>X>X>X>X>X>X>X>X>X>X>X>X>X>X>X>X>X>X>X>X>X>X>X>X>X>X>X>X>X>X>X>X>X>X>X>X>X>X>X>X>X>X>X",
">X>X>X>XX O   o >X>X>X>X>X>X>X>X>X>X>X>X>X>X>X>X>X>X>X>X>X>X>X>X>X>X>X>X>X>X>X>X>X>X>X>X>X>X>X>X>X>X>X>X>X>X>X>X>X>X>X>X>X>X>X>X",
">X>X>X>X>X. O o M |.>X>X>X>X>X>X>X>X>X>X>X>X>X>X>X>X>X>X>X>X>X>X>X>X>X>X>X>X>X>X>X>X>X>X>X>X>X>X>X>X>X>X>X>X>X>X>X>X>X>X>X>X>X>X",
">X>X>X>X>X>X  o V  X`.'.>X>X>X>X>X>X>X>X>X>X>X>X>X>X>X>X>X>X>X>X>X>X>X>X>X>X>X>X>X>X>X>X>X>X>X>X>X>X>X>X>X>X>X>X>X>X>X>X>X>X>X>X",
">X>X>X>X>X>X>XX 1 |.].|.+X{.>X>X>X>X>X>X>X>X>X>X>X>X>X>X>X>X>X>X>X>X>X>X>X>X>X>X>X>X>X>X>X>X>X>X>X>X>X>X>X>X>X>X>X>X>X>X>X>X>X>X",
">X>X>X>X>X>X>X>X; !.|.`.`.].{.>X>X>X>X>X>X>X>X>X>X>X>X>X>X>X>X>X>X>X>X>X>X>X>X>X>X>X>X>X>X>X>X>X>X>X>X>X>X>X>X>X>X>X>X>X>X>X>X>X",
">X>X>X>X>X>X>X>X>X| U.`.].`.|.{.U.>X>X>X>X>X>X>X>X>X>X>X>X>X>X>X>X>X>X>X>X>X>X>X>X>X>X>X>X$X< X + + # >X>X>X>X>X>X>X>X>X>X>X>X>X",
">X>X>X>X>X>X>X>X>X>Xz.H.`.{.`.}.U.@X>X>X>X>X>X>X>X>X>X>X>X>X>X>X>X>X>X>X>X>X>X{.+X{.{.]. X|.> O + X >X>X>X>X>X>X>X>X>X>X>X>X>X>X",
">X>X>X>X>X>X>X>X>X>X>Xr.Z.L.L.+X].}.U.>X>X>X>X>X#X&X*X&X&X#X>X>X>X>X>X>X{.U.].|.].].[.].oXg.* O O >X>X>X>X>X>X>X>X>X>X>X>X>X>X>X",
">X>X>X>X>X>X>X>X>X>X>X>X>XM.H.U.`.{.`.L.>X X X X X[.[.[. X X X#X#X>X].|.|. X[.`.].`.}.`.[.m + O >X>X>X>X>X>X>X>X>X>X>X>X>X>X>X>X",
">X>X>X>X>X>X>X>X>X>X>X>X>X>XB.A.L.`.[.[.}. X X[.[.[.[.[. X[.[. X}.[.[.[.|.`.`.L.H.H.A.B.,.: >X>X>X>X>X>X>X>X>X>X>X>X>X>X>X>X>X>X",
">X>X>X>X>X>X>X>X>X>X>X>X>X>X>X>XV.L.'.'.'. X[.[..X[..X[.oX[.oX.X X}.[.L.H.x.M.M.e.M.>X>X>X>X>X>X>X>X>X>X>X>X>X>X>X>X>X>X>X>X>X>X",
">X>X>X>X>X>X>X>X>X>X>X>X>X>X>X>X>XK.}.'.[.[.[..X.X.X.X.X.XoX.X.X[.[.}.I.M.>X>X>X>X>X>X>X>X>X>X>X>X>X>X>X>X>X>X>X>X>X>X>X>X>X>X>X",
">X>X>X>X>X>X>X>X>X>X>X>X>X>X>X>X>XU.}. X X[..X.X.X.X.X.XoX.XoX.X[. X[.L.>X>X>X>X>X>X>X>X>X>X>X>X>X>X>X>X>X>X>X>X>X>X>X>X>X>X>X>X",
">X>X>X>X>X>X>X>X>X>X>X>X>X>X>X>X>X(.#X XoXoX.X.X.X.X.X.XoX.X.X.XoX|. X'.L.>X>X>X>X>X>X>X>X>X>X>X>X>X>X>X>X>X>X>X>X>X>X>X>X>X>X>X",
">X>X>X>X>X>X>X>X>X>X>X>X>X>X>X>X>X}.}. X[.oXoX.X.X.X.X.XoX.X.XoXoX.X}.(.I.>X>X>X>X>X>X>X>X>X>X>X>X>X>X>X>X>X>X.X.X|.oXOXoXXX>X>X",
">X>X>X>X>X>X>X>X>X>X>X>X>X>X>X>X'.Y.|.I N >.XX.X.X.X.X.XoXoX.Xk.N V !.@XL.>X>X>X>X>X>X>X>X>X>X>X>X>X X X X}. XoX XoX X[. X>X>X>X",
">X>X>X>X>X>X>X>X>X>X>X>X>X>X>X>X'.'.f.& -X;Xf..X.X.X.X.X.XoX_.=X:X= B `.L.>X>X>X>X>X>X>X>X X]. XoX X[.[.[. X[.[.[.[. X XXX>X>X>X",
">X>X>X>X>X>X>X>X>X>X>X>X>X>X>X>X'.}.I @ 4 5 L .X.X.XoXoX.X.Xj.3 v $ , }.}.>X>X>X`.'.}.@X}.}. X X]. X#X X[..X[..X X.X[.oX>X>X>X>X",
">X>X>X>X>X>X>X>X>X>X>X>X>X>X>X>XY.Y.g.- $ 2 D.oX.XoXoXoX.X*XXXN $ % D +X).P.>X>XY.Y.'.}.}.}.'.'.}.[.[.[.[.[.[.[. X[.[. X>X>X>X>X",
">X>X>X>X>X>X>X>X>X>X>X>X>X>X>X>Xc n p.g.P j.oX.X.XXX~.|.oX XoX|.#.>.U.a.n ] >X>XL.L.'.'.'.}.'.[.[.[.[.[.[.[.[.[.[.#X[.[.>X>X>X>X",
">X>X>X>X>X>X>X>X>X>X>X>X>X>X>X>Xh h z ).oX X]..X.X].!.|.|.oX.X}.&X@Xa.j b f >X>XL.'.'.L.'.'.[.[.'.'.[.'.[.[.[. X.X XOX>X>X>X>X>X",
">X>X>X>X>X>X>X>X>X>X>X>X>X>X>X>Xf d h d.].Y.`.'. X[.`.].]. X'.}.@XA.k j g 0 >X>X>XL.'.'.'.'.'.'.[.'.[.[.'.[.[. X X X].>X>X>X>X>X",
">X>X>X>X>X>X>X>X>X>X>X>X>X>X>X>Xs d d s.L.I.U.I.P.F.n.Q.U.F.L.L.Y.u.h w 0 8 >X>X>XL.Y.L.'.}.'.}.}.}.}. X[.[. X X XXX>X>X>X>X>X>X",
">X>X>X>X>X>X>X>X>X>X>X>X>X>X>X>X9 q w l V.I.H.I.I.I.I.I.^.I.J.I.^.u.f w 9 >X>X>X>XK.(.'.'.}.}.Y.}.'.[.[.[. X X X[.OX>X>X>X>X>X>X",
">X>X>X>X>X>X>X>X>X>X>X>X>X>X>X>X>Xs p u.J.Z.V.V.J.J.J.J.J.V.V.N.W.C.a 0 p >X>X>X>X>XK.L.L.Y.Y.K.L.'.'.'.'. X`. X].>X>X>X>X>X>X>X",
">X>X>X>X>X>X>X>X>X>X>X>X>X>X>X>X>Xy.[ q.v.C.M.M.N.V.V.V.V.M.M.M.r.8.2.' >X>X>X>X>X>XK.L.L.L.{.>X>X>X>X>X>X>X>X>X>X>X>X>X>X>X>X>X",
">X>X>X>X>X>X>X>X>X>X>X>X>X>X>X>X>Xb.w.%.i.w.w.7.8.e.8.8.8.8.8.6.3.3.=.0.%.>X>X>X>X>X>XK.L.L.Y.>X>X>X>X>X>X>X>X>X>X>X>X>X>X>X>X>X",
">X>X>X>X>X>X>X>X>X>X>X>X>X>X>X>X>XW.Z.M.6.0.3.1.1.1.1.o.<.+.<.<.2.%.8.z.7.>X>X>X>X>X>XK.K.Y.Y.L.>X>X>X>X>X>X>X>X>X>X>X>X>X>X>X>X",
">X>X>X>X>X>X>X>X>X>X>X>X>X>X>X>XK.I.L.I.B.8.5.4.` ` ' ! ! ^ ^ ..o.M.H.J.B.>X>X>X>X>X>XP.P.L.I.I.>X>X>X>X>X>X>X>X>X>X>X>X>X>X>X>X",
">X>X>X>X>X>X>X>X>X>X>X>X>X>X>X>XK.L.'.L.J.M.e.5.1.....~ ~ ..o.9.z.H.'.L.L.>X>X>XF.H.B.P.P.P.U.L.>X>X>X>X>X>X>X>X>X>X>X>X>X>X>X>X",
">X>X>X>X>X>X>X>X>X>X>X>X>X>X>X>XK.I.].'.L.M.V.B.B.B.z.z.8.z.M.M.B.}.[.'.L.>Xv.b.n.B.P.F.K.K.U.H.H.>X>X>X>X>X>X>X>X>X>X>X>X>X>X>X",
">X>X>X>X>X>X>X>X>X>X>X>X>X>X>X>XU.Y. X].}.H.V.L.L.'.'.'.'.L.V.B.L. X X'.^.>Xq.c.R.D.Q.F.F.P.P.^.F.>X>X>X>X>X>X>X>X>X>X>X>X>X>X>X",
">X>X>X>X>X>X>X>X>X>X>X>X>X>X>X>XF.@X X.XoX`.H.J.}. X X}.'.'.H.J.[.oX X}.U.>X>X7.c.b.R.F.H.P.F.U.S.>X>X>X>X>X>X>X>X>X>X>X>X>X>X>X",
">X>X>X>X>X>X>X>X>X>X>X>X>X>X>X>Xn./. XoX.X}.L.J.@X X X X}.Y.H.}.[. X X'.F.>X>XS E } >X>X>X>Xx.x.P.>X>X>X>X>X>X>X>X>X>X>X>X>X>X>X",
">X>X>X>X>X>X>X>X>X>X>X>X>X>X>X>XT.U.}..X.X.X}.J.}. X X X}.H.K.|.[.oX X'.n.*.>Xr y u >X>X>X>X>X>X>X>X>X>X>X>X>X>X>X>X>X>X>X>X>X>X",
">X>X>X>X>X>X>X>X>X>X>X>X>X>X>X>X,.n.`.[..X.X XJ.L. X X#X}.I.L. X[. X[.L.*.;.>X7 7 t >X>X>X>X>X>X>X>X>X>X>X>X>X>X>X>X>X>X>X>X>X>X",
">X>X>X>X>X>X>X>X>X>X>X>X>X>X>Xj.;.*.I.L.}.[.[.L.K.}.#X#XY.P.'.[.[.}.L.v.) *.y 6 e r >X>X>X>X>X>X>X>X>X>X>X>X>X>X>X>X>X>X>X>X>X>X",
">X>X>X>X>X>X>X>X>X>X>X>X>X>X>XG.*.G q.J.Y.L.L.J.I.'. X@XY.A.I.'.}.L.n.E K T.i 6 7 7 >X>X>X>X>X>X>X>X>X>X>X>X>X>X>X>X>X>X>X>X>X>X",
">X>X>X>X>X>X>X>X>X>X>X>X>X>X>XF.q.W / 9.V.J.J.I.P.}.}.#X(.Z.I.J.H.v.) Z =.W.h.>X>X>X>X>X>X>X>X>X>X>X>X>X>X>X>X>X>X>X>X>X>X>X>X>X",
">X>X>X>X>X>X>X>X>X>X>X>X>X>X>Xx.x.*.F S =.C.M.Z.W.}.'. X^.C.C.N.0./ Z | n.I.H.>X>X>X>X>X>X>X>X>X>X>X>X>X>X>X>X>X>X>X>X>X>X>X>X>X",
">X>X>X>X>X>X>X>X>X>X>X>X>X>X>XF.H.m.$.H J E @.9.P.}.}.@XY.z.X.O.Y A X.n./.P.B.>X>X>X>X>X>X>X>X>X>X>X>X>X>X>X>X>X>X>X>X>X>X>X>X>X",
">X>X>X>X>X>X>X>X>X>X>X>X>X>X>Xx.K.P.K.c.=.X.%.n.L.'.[.'.'.L.-.} X.5.x.Y.L.U.n.>X>X>X>X>X>X>X>X>X>X>X>X>X>X>X>X>X>X>X>X>X>X>X>X>X",
">X>X>X>X>X>X>X>X>X>X>X>X>X>Xh.x.P.(.L.I.(.I.L.Y.'.L.'.L.'.'.L.H.H.L.L.'.L.H.z.>X>X>X>X>X>X>X>X>X>X>X>X>X>X>X>X>X>X>X>X>X>X>X>X>X",
">X>X>X>X>X>X>X>X>X>X>X>X>X>Xh.x.P.I.I.I.I.Y.Y.I.I.I.I.I.I.L.I.I.Y.Y.I.L.I.B.x.>X>X>X>X>X>X>X>X>X>X>X>X>X>X>X>X>X>X>X>X>X>X>X>X>X",
">X>X>X>X>X>X>X>X>X>X>X>X>X>Xc.C.W.J.L.I.J.I.I.I.A.V.V.V.V.V.J.J.I.J.J.J.J.W.v.>X>X>X>X>X>X>X>X>X>X>X>X>X>X>X>X>X>X>X>X>X>X>X>X>X",
">X>X>X>X>X>X>X>X>X>X>X>X>X>Xq.E.B.I.A.V.V.V.V.N.N.N.N.N.N.N.V.V.V.V.V.J.V.E.w.>X>X>X>X>X>X>X>X>X>X>X>X>X>X>X>X>X>X>X>X>X>X>X>X>X",
">X>X>X>X>X>X>X>X>X>X>X>X>X>X7.q.x.V.V.V.V.N.e.t.6.6.6.6.6.6.e.r.N.V.V.V.N.z.l.>X>X>X>X>X>X>X>X>X>X>X>X>X>X>X>X>X>X>X>X>X>X>X>X>X",
">X>X>X>X>X>X>X>X>X>X>X>X>X>X>X&.7.C.V.N.N.e.5.9.1.1.1.1.1.1.9.9.e.e.N.V.M.8.&.>X>X>X>X>X>X>X>X>X>X>X>X>X>X>X>X>X>X>X>X>X>X>X>X>X",
">X>X>X>X>X>X>X>X>X>X>X>X>X>X>X$.q.8.e.e.6.3.+...Q  . . . . .+.@.1.6.r.e.8.0.>X>X>X>X>X>X>X>X>X>X>X>X>X>X>X>X>X>X>X>X>X>X>X>X>X>X",
">X>X>X>X>X>X>X>X>X>X>X>X>X>X>X>X@.0.t.3.2.+.Q R T T T T T R R Q _ @.1.0.5.1.>X>X>X>X>X>X>X>X>X>X>X>X>X>X>X>X>X>X>X>X>X>X>X>X>X>X",
">X>X>X>X>X>X>X>X>X>X>X>X>X>X>X>X>X@.o.2.:.E >X>X>X>X>X>X>X>X>XW E O.+.2.>X>X>X>X>X>X>X>X>X>X>X>X>X>X>X>X>X>X>X>X>X>X>X>X>X>X>X>X",
">X>X>X>X>X>X>X>X>X>X>X>X>X>X>X>X>X>XG / W >X>X>X>X>X>X>X>X>X>X>X>XJ J C >X>X>X>X>X>X>X>X>X>X>X>X>X>X>X>X>X>X>X>X>X>X>X>X>X>X>X>X",
">X>X>X>X>X>X>X>X>X>X>X>X>X>X>X>X>X>Xq.$.>X>X>X>X>X>X>X>X>X>X>X>X>X>X2.8.>X>X>X>X>X>X>X>X>X>X>X>X>X>X>X>X>X>X>X>X>X>X>X>X>X>X>X>X",
">X>X>X>X>X>X>X>X>X>X>X>X>X>X>X>X>X>X>X>X>X>X>X>X>X>X>X>X>X>X>X>X>X>X>X>X>X>X>X>X>X>X>X>X>X>X>X>X>X>X>X>X>X>X>X>X>X>X>X>X>X>X>X>X",
">X>X>X>X>X>X>X>X>X>X>X>X>X>X>X>X>X>X>X>X>X>X>X>X>X>X>X>X>X>X>X>X>X>X>X>X>X>X>X>X>X>X>X>X>X>X>X>X>X>X>X>X>X>X>X>X>X>X>X>X>X>X>X>X",
">X>X>X>X>X>X>X>X>X>X>X>X>X>X>X>X>X>X>X>X>X>X>X>X>X>X>X>X>X>X>X>X>X>X>X>X>X>X>X>X>X>X>X>X>X>X>X>X>X>X>X>X>X>X>X>X>X>X>X>X>X>X>X>X",
">X>X>X>X>X>X>X>X>X>X>X>X>X>X>X>X>X>X>X>X>X>X>X>X>X>X>X>X>X>X>X>X>X>X>X>X>X>X>X>X>X>X>X>X>X>X>X>X>X>X>X>X>X>X>X>X>X>X>X>X>X>X>X>X",
">X>X>X>X>X>X>X>X>X>X>X>X>X>X>X>X>X>X>X>X>X>X>X>X>X>X>X>X>X>X>X>X>X>X>X>X>X>X>X>X>X>X>X>X>X>X>X>X>X>X>X>X>X>X>X>X>X>X>X>X>X>X>X>X",
">X>X>X>X>X>X>X>X>X>X>X>X>X>X>X>X>X>X>X>X>X>X>X>X>X>X>X>X>X>X>X>X>X>X>X>X>X>X>X>X>X>X>X>X>X>X>X>X>X>X>X>X>X>X>X>X>X>X>X>X>X>X>X>X"
};
