/* XPM */
static char *result[] = {
/* columns rows colors chars-per-pixel */
"64 64 231 2 ",
"   c #090705",
".  c #0A0807",
"X  c #0D0B09",
"o  c #1B0405",
"O  c #150906",
"+  c #1C0A06",
"@  c #110E0D",
"#  c #1B0C0B",
"$  c #13100E",
"%  c #1B130B",
"&  c #1E0F10",
"*  c #151312",
"=  c #191514",
"-  c #1B1816",
";  c #1B1718",
":  c #1E1A19",
">  c #240B05",
",  c #2C0B04",
"<  c #240A08",
"1  c #340C03",
"2  c #3A0D03",
"3  c #370F0A",
"4  c #21140C",
"5  c #2B140A",
"6  c #37120B",
"7  c #210A10",
"8  c #281614",
"9  c #241B15",
"0  c #221E1D",
"q  c #2C1D1A",
"w  c #391614",
"e  c #3C1E1A",
"r  c #27221D",
"t  c #35241B",
"y  c #1F1B26",
"u  c #211C21",
"i  c #3D1F23",
"p  c #252222",
"a  c #2A2523",
"s  c #2B2828",
"d  c #2C2A2A",
"f  c #362824",
"g  c #332D2B",
"h  c #39312D",
"j  c #2E2E36",
"k  c #353333",
"l  c #3C3533",
"z  c #3E3635",
"x  c #3C3B3B",
"c  c #450F05",
"v  c #540F08",
"b  c #491208",
"n  c #521207",
"m  c #53130A",
"M  c #5B1409",
"N  c #561B0B",
"B  c #471916",
"V  c #521C17",
"C  c #64150B",
"Z  c #6C160C",
"A  c #68180D",
"S  c #74170F",
"D  c #731A0D",
"F  c #7C1A0F",
"G  c #651D14",
"H  c #751910",
"J  c #7B1D13",
"K  c #49231D",
"L  c #58211A",
"P  c #4C3618",
"I  c #6F2B13",
"U  c #6C221A",
"Y  c #782319",
"T  c #653B18",
"R  c #472724",
"E  c #53272C",
"W  c #55332C",
"Q  c #493633",
"!  c #413935",
"~  c #423E3E",
"^  c #553738",
"/  c #67352B",
"(  c #6F3630",
")  c #733B3B",
"_  c #7B3E3A",
"`  c #45423E",
"'  c #58413C",
"]  c #724E35",
"[  c #7A443C",
"{  c #383741",
"}  c #3E3F43",
"|  c #413D43",
" . c #553B49",
".. c #3A4756",
"X. c #3F5060",
"o. c #454443",
"O. c #4A4647",
"+. c #564A47",
"@. c #57514F",
"#. c #494956",
"$. c #564C53",
"%. c #49505B",
"&. c #555353",
"*. c #59575B",
"=. c #5D5C5C",
"-. c #6E4B46",
";. c #665656",
":. c #62605F",
">. c #485869",
",. c #5C5D62",
"<. c #585867",
"1. c #555D76",
"2. c #615C65",
"3. c #735B63",
"4. c #5E6269",
"5. c #4B6174",
"6. c #4C647A",
"7. c #546575",
"8. c #5A6979",
"9. c #656363",
"0. c #656566",
"q. c #6C6B6B",
"w. c #746A67",
"e. c #77706F",
"r. c #656B78",
"t. c #736D78",
"y. c #6B737B",
"u. c #747473",
"i. c #797371",
"p. c #70747C",
"a. c #7C7C7B",
"s. c #841A0E",
"d. c #831C12",
"f. c #8B1D13",
"g. c #941E13",
"h. c #9B1F14",
"j. c #A01D12",
"k. c #892317",
"l. c #9D2115",
"z. c #9A271C",
"x. c #A42115",
"c. c #AB2317",
"v. c #A5261A",
"b. c #AA241A",
"n. c #B32418",
"m. c #B2271A",
"M. c #A2341C",
"N. c #8D3529",
"B. c #98362A",
"V. c #953B37",
"C. c #A62E23",
"Z. c #90542E",
"A. c #A2443F",
"S. c #9B7039",
"D. c #A66C37",
"F. c #8C3E42",
"G. c #894D46",
"H. c #8F4F48",
"J. c #8A6D4B",
"K. c #967554",
"L. c #AF7743",
"P. c #A8605F",
"I. c #805862",
"U. c #8B6967",
"Y. c #876C6F",
"T. c #897270",
"R. c #887875",
"E. c #837D7E",
"W. c #7E807E",
"Q. c #AE8A4C",
"!. c #99836D",
"~. c #5C6D80",
"^. c #666C84",
"/. c #687787",
"(. c #7B7D83",
"). c #787B87",
"_. c #6B7290",
"`. c #767B95",
"'. c #7D8084",
"]. c #7E828B",
"[. c #778697",
"{. c #848485",
"}. c #8B8685",
"|. c #868789",
" X c #8F8F8F",
".X c #928586",
"XX c #908F8F",
"oX c #90908F",
"OX c #8C8D91",
"+X c #878A98",
"@X c #908F90",
"#X c #8F9091",
"$X c #88929C",
"%X c #929292",
"&X c #94969B",
"*X c #98999D",
"=X c #A69392",
"-X c #878DA7",
";X c #8B96A4",
":X c #9699A7",
">X c #979CB6",
",X c #96A1AB",
"<X c #9CA4AC",
"1X c #9EA3BC",
"2X c #A8A6AB",
"3X c #A3ACB4",
"4X c #A4A7B9",
"5X c #AAB1B8",
"6X c #ABB3BA",
"7X c #B1B6BE",
"8X c #D2B99A",
"9X c #C1B8B7",
"0X c #EDD5B0",
"qX c #A4A9C2",
"wX c #AAAEC2",
"eX c #AFB2C2",
"rX c #B4B9C5",
"tX c #BBC3C8",
"yX c #BDC2D1",
"uX c #C5C8CC",
"iX c #C1C5D6",
"pX c #C5CBD3",
"aX c #CBCDD8",
"sX c #D3D8DB",
"dX c #D5DAE2",
"fX c #DEE3E5",
"gX c #E3E8EA",
"hX c #EBEFF0",
"jX c #EDF0F1",
"kX c #F3F5F6",
"lX c #FDFFFF",
/* pixels */
"&X&X%X*X&X%X*X%X*X*XoX%X*X*X%X*X&X&X%X*X%X*X&X&X*X@X*X%X*X%X*X&X%X*X&X%X*X%X*X%X&X&X%X*X%X*X%X&X%X*X*X%X%X&X&X*X%X*XoX%X*X*X%X*X",
"XXXXoXoX X XoXoXoXoX X XoXoXoXoXXXXXoXoXXXXXXX*X&X X%X5X>X}.@XXXXXXXXXXXXXXXXX%X X XoXoXoXoX XXXoXoXoXoX X XoXoXoXoX XXXoXoXoXoX",
" X XoXoX X X X XoXXXXXXXoXoXoXoXOXXX XOXXXXX*XeX+X*XuXiX+X@X@X@XXX@X@XXXXXXXXXXX XoX X XoXXXXXXXoXoXoXoXoX X X XoXoXXXXXXXoXoXoX",
" XXXXXXX X X XoXoXXX X XXXoXoXoX@X@X|.OXXXoX7X4X<XdXaX>X+X@X%X&X%X%X@XOXXXXXXXXX X X X XoXoXXXXXoXoXoXoX X X X XoXoXXXXXXXoXoXoX",
" XXX X X X X X X X X XoX X X X XXXXX&X:X}.2XrX>XdXiX1X1XeXtXrX5X;X+XOX XXXXXXXXX X X X X X X X XXXXX X X X X X X XoX X XXX X X X",
" X X X X X X X X X X X XXX X X XXXXXXX2X:XeX>X1XwX>X1X1X>X`.^.^.]. XXX%XXXXX XXX#X XXX X X X X X XXX X X XoX XoX X X X X X X Xa.",
" X X XoX X X X X X X X X X X X XXXXXXX:XiXrXwXyXiXrX1X-X`._.^.`.OX X|.OX X X X X X X X X X X X X XXX X X X X X X X X X X X X X}.",
" X X X XoX X X XoX X X X X XoX XXXXXXX%XaXdXsXiXaXiXwX>X-X-X`._.`.).{. X X X X X X XoX X X X X X X X X X X X X X X X XoX X X XoX",
" X X XoX X X X X X X X X XoX X X X XoX X$XrXwXaXiXqXqX+XE.^.1.4.(.OXXXXX X X X X X#XXX X X X X X X X X X X X X X X X X X X X X X",
" X X X XoX X X X X X X X X X X X X X XoXOX`.:X!.=X9X4XY.Z. .^ R ^ E.XXXX X X X X X X X X X X X X X X X X XoX X XoX X XoX X X XoX",
" X X X X X X X X X X X XoX X X X X XoX#XE.^.^.E.8X0X8XH.f.h.g.C / |.@X@X X X XXXoX X X X%X X X X XoX#X X X X X X X X X X X X X X",
"oX X X X X X XoX X XoX X X X X X X X#X.X/ ^  .e ] 8XT.N.b.b.D n W U.E.}. X#X%XXX X X X X X X X X X X X X X X X X X X X XoX X X X",
" X X X X X X X X X X X X X X X X X X X.X[ C V 2   a ;.Y x.F N M M A U / -.U.}.oX X X X X X X X X X X X X X X XoX X X X X X X X X",
" X X X X X X X X X X X X X X X X X XU.B.l.S b 1   9 } U D n F l.x.x.h.s.n 1 Q }.%X X X X X X XoX X XoX X X X X X X X X X X X X X",
" X X XoXoX X X XoX XoX X X XoX X%X.XN.j.d.Z b > * 9.o.J l.g.F F f.h.Z m 2 1 +.XX X X X X X X X X X X X X X X X XoX XoX X X X XoX",
" X X X X X X X X X X X X X X X XoXoX^ Z f.l.m + s u.a J x.n.c.v.F b s.C c c w.@X X X X X X X X X X#X X XoX X X X X X X X X X X X",
" X X X X X X X X X X X X X X X X%X XW Z ( Z.m # =.=.0 w [ H.C.m.H S b.M n c  .|.oX X X X X X X X X X XoX X X X X XoX X X X X XoX",
"oX XoX X X X X X X X X X X X X X X X+.t q ,.B u E.~ 9 o.*.Q +.K.] M x.l.D b R E.%X X X X X XoX X X X X X X X X X X X X X X X X X",
" X X X X X X%X X X X X X#X X X X XoXq.f | -.G u a.s e _ +.g x K.Q.5 H m.U.OX8.). X X X X X X X X X X X X XoX X X X X XoX X X X X",
" X X X X X X X X X X X X XoX X X X$X).^ ( H 3 ; #.@ 3 x.B.J.J.Q.P $ V C.P.6X[.8.|.oXoX X X X X XoX X X X X X X#X X X X#XoX X X X",
" X X X X X X X X X X X X X X X XOX{.) N c c o * x X + M s.N T T 6 % K z.A.t.*.#.(.%X X X X X X X X X X X X X X X X X X X X X X#X",
" X X X X X X X X%X$X%XoX X X X X%X}.B.C 1 1 O 0 x   > 2 1 2 2 2 6 ! a.B.l.c 2 B E.%X X X X XoX X X X X XoX XoX X X X X X X X XoX",
" X X X X X X X%X!.q.9.u. X#X X X%XY.z.A 1 1   d k   > 2 , 1 2 6 @. X XH.x.n 2 2 w.%X X X X XoX X X X X X X X X X X X X X X X%X|.",
"oX X X X X X X X:.J.Z.h q.oX%X XoX-.s.A 2 >   x 0   > 2 , 2 2 +.XXoXoXU.x.n 2 2 +.OX X X X X X X#X XoX X X X X X XoX X X X XoXW.",
" X X X X XoX XoX|.w.-.l h &.u. X.XB.x.m 2 , $ o.w 3 2 2 1 2 ^  XoXoX%XT.k.n c 2 Q  X X X X X X X X X X X X%X X X X X X X X X X X",
" X X X X X XOXoXoX%X|.W.:.o.l o.w.v.h.v D A P ) l.A F A 1 2 ' #XXXoXoXT.v.A 2 1 R |.oX X X X X X X X X X X X X X X X X X XoX X X",
" X X#XoX X X XoX X XoXoX%X|.u.r.3.b.S C D M.L.M.g.v g.Z 1 2 R !.oXoXoXT.v.k.;.2.} ].@X X X XoX X X X X X X X X X X XoX X X X X X",
" X X X X X X X X XoXoXoXOXOXOX+XV.h.n d.I D.Q.Z.l.b h.H 1 1 6 @.|.oXoXT.v.Y &X3X/.^.|.@X X X X X X X X X X X X X X X X X XoX X X",
" X X X X X X X X XoX X X X#X!.[ c.Z M H w L.D.I 5 < l.k.1 5 4 4 O. X%XY.v.J ;.r.^.8.{.@X XoX X X X X XoX X X X XoX X X X X X#X X",
"oX XoX X#X X X X X X X XoX XG.c.f.f R 3 P K.S.T X # D K 9 % % % % ` q.U.b.Z 1 # u %.].@X X X X X X X X X X X XoX X X X X X X XoX",
" X X X X XXX X X X X XoX#Xq.R V e z z g 9 r ` q * a h 9 % % % % > % : K x.M 1 O O ~  X X X X X X X X X X X X X X X X X X X X X X",
" X X X X X X X X X X X X#X=.- $ O.O.h ! h h g r h ! ! f % > 5 2 1 4 ; 8 K 4 O O   o.%X%X X X X XXX#X X X XoX X X#X X XoX X X X X",
" XXX#X X X X XoX X X X XOXp.d s |.I.m r $.(.t.! l l t K m 2 2 2 2 1 # @ $ * ; = . u q.|.%X%XoXXX X X X X X X X X X X X X X XXX X",
" X X X X X X X X X X XXXOX1.j g t.F.U 2.uX4X;X*.h r r L Y 2 2 2 2 2 , 7 k ,.0.O.d & u l =.a. X%XoX X XXX X X X X X X X X X X X X",
" X X X X X X X X X XXX%X).{ s 9 U A.=X6X7X5X`.<.9 f z l h t 6 5 2 2 w p q.:X-.V <.u = = ; u ~ 0.|.%X%XXX X X@X@X X X X X X X X X",
" X X X XoX X X X X XXXOX(.k * r Y.5X6X6X3X).#.k % r f l l h 9 4 r ~ p < d t.$. .$.7 O # = = ; : g O.u. X%X%X X@X X X X XoX X X X",
" XoX X X XXX X X X X X XoX:.g 4.2X6X6X+X4.<.x 4.*.,.^ I K 8 % % #.8.u % q g | } y : # o o # # ; ; = y { 0.{.%X@X X X X X XoXXX X",
" X X X X X X X X X X X%X X9.` W.+X:X1.u ; s ; s k s B x.j.J 1 a 8.{ % % * ; : 9 j 5...j & o o o # * ; ; 9 d O.{.%XoX X XOXoX X X",
" XoX X X X X X X X X X%XW.l l O.<.Q #           @ @ 6 v.n.n.C 3 t 3 > % % * # s X.6.6.6.5.%.! i B B w 7 & * ; u.'.'. X X X X XXX",
" X X X X X X X X X X X X X` f B f.S . . * $     * - q l.n.n.f.1 2 2 2 3 1 < d >.6./.wXaXdXgXhXsX*X-.E v w # #.uX7X$Xy.p.]. X X%X",
" X#X X X X X X X XoX X X%X=.V x.n.C . & u ;     * 0 r g.n.n.c.M 2 2 2 2 2 2 z 5._.sXlXlXlXlXlXlXlXkXuX}.Y.}.fXlXlXkXsX3X[.p.'.W.",
" X X X XoX X X X X X X X XR.z.c.c.B @ 0 0 ; X X * 0 r Y n.n.n.d.2 2 2 2 1 1 q >.1XkXlXlXlXlXlXlXlXlXlXlXlXlXlXlXlXlXlXlXdX/.7.0.",
" XXX X X X X X X X X XoX X|.N.l.h.w u 0 0 : X   * 0 : U l.f.d.C , + + + O . X k <.[.6XgXlXlXlXlXlXlXlXlXlXlXlXlXlXlXlXhX$X5.8.|.",
" X X X X X X%X X X X X X%X X} 0 w u u 0 0 p X   X : 0 p q # X X           X . 9 t ,.8.8.;XpXjXlXlXlXlXlXlXlXlXlXlXlXgX$X5.8.|.oX",
" X X X X X X X X X X X X X{.k ; : 0 0 0 0 0 = X X : 0 0 0 * . . X . . . . . . 0 +.W i.(.r.7./.<XsXkXlXlXlXlXlXlXjXtX[.5.8.|.%XoX",
" XoX X X X X X X X X X X%Xa.s : p 0 0 0 0 0 ; X . - 0 0 0 - . . . . . . . . . . =.;.R i.#X|.y.7.7.[.3XtXsXsXsXrX[.5.5.y.|.oXoXoX",
" X#X X X X X X X XoX X X#Xq.0 : 0 0 0 0 p : : X . * 0 0 0 0 . . . . . . . . .   s |.;.P a.oXoX XW.r.7.7.6.7.7.5.7.y.'.oXoX XoXoX",
" X X X X X X X X X X XoXoX*.: : 0 0 0 p : r : $ . * 0 0 0 0 * . . . . . . . . . X q.oXQ ^  XoX%X X X X|.'.'.W.W.]. XoX XoX XoXoX",
" X X X X X X XoX X X X X XO.- 0 0 0 0 0 0 0 0 * . @ 0 0 0 0 - . . . . . . . . . . k  Xe.L T.%XXX X X X X%XoXoX%X X X X X X X X X",
" XXX X X X X X X X X XXX|.x ; : u 0 0 0 0 0 0 - . X 0 0 0 0 - . . . . . . . . . . $ u. X_ G. XXX X X X XoX X X X X X X XoX X#X X",
" X X X X X X X X X X X#X{.d $ - 0 0 0 0 0 0 0 0 X X - u 0 0 0 X . . . . . . . . . . o.#XU.V.}.OX X X X X X X X X X X X X X X X X",
" XoX X XXX X#X X X XoX%Xu.p @ * 0 0 0 0 r 0 0 0 $ . - 0 0 0 u * . . . . . . . . . . - a. X[.(.oX X X X X X X X X X X X X X XoX X",
" X X X X XoX X X X X X%X9.0 X $ 0 0 0 0 0 0 0 0 * . * 0 0 0 0 * . . . . . X X . . . . &.;X;X(.%X X X X X X X X X XoX X X X X XoX",
" X X X X X X X X X X XoX&.- . X 0 0 0 0 0 0 0 0 - . * 0 0 0 0 0 X . . . . X @ . . . . p {.).|.%X#X X X X X X X X X X X X X X X X",
" X XOXXX X X XoX X XXX X` - X . - 0 0 0 0 0 u 0 : X @ 0 0 0 0 0 @ . . . . X $ $ . . . X =. X X X X X X X X X X#X X X#X X X X X X",
" XoXoXoX X X X X X XoX|.k = .   = 0 u 0 0 r r : 0 X X 0 0 0 0 0 * . . . . . @ $ X . . . k  X X X X X X X X X X X X X X XoX X X X",
" X X X X X X X X X XoXa.s *     @ u 0 0 0 0 r u 0 * X - 0 0 0 0 - . . . . . X @ $ @ .   $ u.%X X#X X X X X X X X X X X X X X X X",
" X X X X XoX X X X X X{.x @     X 0 0 0 0 0 : r 0 -   - 0 0 0 r : X . . . . X $ $ $ @ $ x W.%X X X X X X XoX X XoX XoX X X X X X",
" XoX XoXOXoX X X X X#X*XOXO.} : O 9 9 : 0 9 0 : r : s s : : r : 0 @ . . . . . X @ # # O. XoX X XoX X XoX X X X X X X X#X X XoXa.",
" X X X XXXoX X X XOX<X6X5X5X;X>.3 , 5 = = s $.q.q.u.{.q.&.o.l d p - X - p k k f 1 B t ]  X#X XoX X X X X X X X#X X X X X X X X X",
" X X X X X X X X%XOX2X3X,X;X[.6.z +.q.e.q.{. X%X#X#X X%X X X|.{.a.q.q.W.|. X&X,Xw.y.8.,. X X X X X X X X X X X X X X X X X X X X",
" X XXX#X X X XoX XOX]./.^./.y.).{. X%X%X%X%X X X#X X X X X XoXoX X%XoXoXoX#X3X7X6X3X[.r.|.%X X#X X XoX X X X X X X X X X X X X X",
" X X X X X XXXoX XXX X|. X X XOXoX X X X X X X X X X X X X X X X X X X X X X<X7X5X3X[.y.oXoX X X X X X X X X X X X X X X X X X X",
" X X X X XXXXXOX X X X X X X XXX X XoX X X X X X X X X X X X X X X X X X X X X$X;X`.~.{.%XoXoX X X X X X X X X X X X X X X X X X"
};
