/* XPM */
static char *result[] = {
/* columns rows colors chars-per-pixel */
"64 64 224 2 ",
"   c #090706",
".  c #0A0807",
"X  c #0C0A09",
"o  c #070504",
"O  c #130504",
"+  c #1C0404",
"@  c #150906",
"#  c #1C0A06",
"$  c #110E0D",
"%  c #1B0D0C",
"&  c #1D0708",
"*  c #14100E",
"=  c #1B130B",
"-  c #161312",
";  c #1A1515",
":  c #1B1817",
">  c #1E1B19",
",  c #1B1618",
"<  c #230B05",
"1  c #2C0A04",
"2  c #230908",
"3  c #340B04",
"4  c #3B0C03",
"5  c #370F09",
"6  c #23140D",
"7  c #2E150C",
"8  c #26160A",
"9  c #33110C",
"0  c #38140E",
"q  c #231B14",
"w  c #221E1D",
"e  c #2B1D1A",
"r  c #291715",
"t  c #3C1E1B",
"y  c #371614",
"u  c #210B10",
"i  c #26221D",
"p  c #29211C",
"a  c #36231B",
"s  c #1F1B25",
"d  c #211D23",
"f  c #3C1F23",
"g  c #242223",
"h  c #2A2423",
"j  c #2C2926",
"k  c #2C2A2A",
"l  c #282629",
"z  c #312524",
"x  c #342D2A",
"c  c #352A26",
"v  c #3B312D",
"b  c #32302F",
"n  c #312E33",
"m  c #353334",
"M  c #3D3532",
"N  c #3D3C3C",
"B  c #3E3834",
"V  c #2F353D",
"C  c #440E05",
"Z  c #4A0E08",
"A  c #4D1106",
"S  c #49130A",
"D  c #521207",
"F  c #54130B",
"G  c #5B1409",
"H  c #581809",
"J  c #4B1415",
"K  c #461A15",
"L  c #551C16",
"P  c #64160B",
"I  c #6B160C",
"U  c #67190C",
"Y  c #74170E",
"T  c #73190D",
"R  c #7B1A0F",
"E  c #78170F",
"W  c #651D15",
"Q  c #6B1A10",
"!  c #761911",
"~  c #7B1C12",
"^  c #47221C",
"/  c #55201B",
"(  c #553816",
")  c #453116",
"_  c #76221A",
"`  c #643A18",
"'  c #6E2B13",
"]  c #471F20",
"[  c #482625",
"{  c #592626",
"}  c #403834",
"|  c #423739",
" . c #57363A",
".. c #502E36",
"X. c #763A3A",
"o. c #7E332E",
"O. c #5C4234",
"+. c #4C443D",
"@. c #77543A",
"#. c #714134",
"$. c #3B3D42",
"%. c #373843",
"&. c #403F45",
"*. c #553C4B",
"=. c #3F505F",
"-. c #3E5468",
";. c #4A494C",
":. c #464445",
">. c #58494A",
",. c #494855",
"<. c #535253",
"1. c #5D5D5D",
"2. c #58555D",
"3. c #544A58",
"4. c #664146",
"5. c #695458",
"6. c #445A6D",
"7. c #455567",
"8. c #595965",
"9. c #4A5E73",
"0. c #575C79",
"q. c #444D6E",
"w. c #625B65",
"e. c #6C5A69",
"r. c #5D6164",
"t. c #4B6275",
"y. c #4C647A",
"u. c #52647A",
"i. c #5B667A",
"p. c #596B7C",
"a. c #556678",
"s. c #5F707E",
"d. c #63636A",
"f. c #686873",
"g. c #76777B",
"h. c #727079",
"j. c #821B12",
"k. c #8B1D13",
"l. c #941E13",
"z. c #9A1F14",
"x. c #A21F14",
"c. c #892418",
"v. c #9C2015",
"b. c #912017",
"n. c #A32116",
"m. c #AB2216",
"M. c #AA241A",
"N. c #B42418",
"B. c #B2261A",
"V. c #A3341C",
"C. c #943A25",
"Z. c #8F3430",
"A. c #A83427",
"S. c #8B5E39",
"D. c #8D5130",
"F. c #A2443F",
"G. c #9D733B",
"H. c #A56C36",
"J. c #8E3F44",
"K. c #8B4B45",
"L. c #A84946",
"P. c #977655",
"I. c #8E7045",
"U. c #B07744",
"Y. c #815B64",
"T. c #896B6D",
"R. c #8B7174",
"E. c #A9787A",
"W. c #AD894C",
"Q. c #9A846F",
"!. c #5C6B82",
"~. c #5C7388",
"^. c #656A88",
"/. c #69788B",
"(. c #757885",
"). c #6E7495",
"_. c #767B97",
"`. c #7F838E",
"'. c #798798",
"]. c #888280",
"[. c #948B8E",
"{. c #868997",
"}. c #84919C",
"|. c #9C9699",
" X c #A89493",
".X c #BEA889",
"XX c #868CA7",
"oX c #8A97A3",
"OX c #9196AF",
"+X c #9498A5",
"@X c #979CB8",
"#X c #98A1AC",
"$X c #9EA3BE",
"%X c #9DA9B3",
"&X c #A1AAB3",
"*X c #A2A6BD",
"=X c #A7AAB6",
"-X c #ABB3BA",
";X c #A7B0B7",
":X c #AEA9AF",
">X c #D2B99A",
",X c #C2B8B8",
"<X c #EDD5B0",
"1X c #A4A9C2",
"2X c #A9ADC3",
"3X c #B4B9C6",
"4X c #ADB0C1",
"5X c #BCC5CB",
"6X c #BCC1D3",
"7X c #C7C9CB",
"8X c #C1C6D5",
"9X c #C8CCD8",
"0X c #CED2DA",
"qX c #D4DADC",
"wX c #D2D6D9",
"eX c #D5DAE4",
"rX c #DDE2E7",
"tX c #E5E8E9",
"yX c #EEF2F2",
"uX c #F2F5F6",
"iX c #FDFFFF",
"pX c #F5F8F9",
"aX c #ECEFF4",
"sX c 0",
/* pixels */
"sXsXsXsXsXsXsXsXsXsXsXsXsXsXsXsXsXsXsXsXsXsXsXsXsXsXsXsXsXsXsXsXsXsXsXsXsXsXsXsXsXsXsXsXsXsXsXsXsXsXsXsXsXsXsXsXsXsXsXsXsXsXsXsX",
"sXsXsXsXsXsXsXsXsXsXsXsXsXsXsXsXsXsXsXsXsXsXsXsXsXsXsXsX1XsXsXsXsXsXsXsXsXsXsXsXsXsXsXsXsXsXsXsXsXsXsXsXsXsXsXsXsXsXsXsXsXsXsXsX",
"sXsXsXsXsXsXsXsXsXsXsXsXsXsXsXsXsXsXsXsXsXsXsX3XsXsXuX9XXXsXsXsXsXsXsXsXsXsXsXsXsXsXsXsXsXsXsXsXsXsXsXsXsXsXsXsXsXsXsXsXsXsXsXsX",
"sXsXsXsXsXsXsXsXsXsXsXsXsXsXsXsXsXsXsXsXsXsXeX2X1XuX9X@XsXsXsXsXsXsXsXsXsXsXsXsXsXsXsXsXsXsXsXsXsXsXsXsXsXsXsXsXsXsXsXsXsXsXsXsX",
"sXsXsXsXsXsXsXsXsXsXsXsXsXsXsXsXsXsXsXsXsXsX3X*XrX8X$X$X8XrX8X2X@XsXsXsXsXsXsXsXsXsXsXsXsXsXsXsXsXsXsXsXsXsXsXsXsXsXsXsXsXsXsXsX",
"sXsXsXsXsXsXsXsXsXsXsXsXsXsXsXsXsXsXsXsX1X8X$X*X1X@X$X1XOX_.^.!.sXsXsXsXsXsXsXsXsXsXsXsXsXsXsXsXsXsXsXsXsXsXsXsXsXsXsXsXsXsXsXsX",
"sXsXsXsXsXsXsXsXsXsXsXsXsXsXsXsXsXsXsXsXeX3X*X8X8X3X$XXX_.).^.sXsXsXsXsXsXsXsXsXsXsXsXsXsXsXsXsXsXsXsXsXsXsXsXsXsXsXsXsXsXsXsXsX",
"sXsXsXsXsXsXsXsXsXsXsXsXsXsXsXsXsXsXsXsXtXeXeX8X9X8X2XOXOX_.).).).sXsXsXsXsXsXsXsXsXsXsXsXsXsXsXsXsXsXsXsXsXsXsXsXsXsXsXsXsXsXsX",
"sXsXsXsXsXsXsXsXsXsXsXsXsXsXsXsXsXsXsXsXsX3X4X0X8X*X*X{.].!.0.7.sXsXsXsXsXsXsXsXsXsXsXsXsXsXsXsXsXsXsXsXsXsXsXsXsXsXsXsXsXsXsXsX",
"sXsXsXsXsXsXsXsXsXsXsXsXsXsXsXsXsXsXsXsXsX_.OXQ. X,X=Xg.D.4...[ ] sXsXsXsXsXsXsXsXsXsXsXsXsXsXsXsXsXsXsXsXsXsXsXsXsXsXsXsXsXsXsX",
"sXsXsXsXsXsXsXsXsXsXsXsXsXsXsXsXsXsXsXsXsX0.^.R.>X<X>XK.k.z.l.U F sXsXsXsXsXsXsXsXsXsXsXsXsXsXsXsXsXsXsXsXsXsXsXsXsXsXsXsXsXsXsX",
"sXsXsXsXsXsXsXsXsXsXsXsXsXsXsXsXsXsXsXsXG ..3.S #.>XE.Z.x.M.R A C sXsXsXsXsXsXsXsXsXsXsXsXsXsXsXsXsXsXsXsXsXsXsXsXsXsXsXsXsXsXsX",
"sXsXsXsXsXsXsXsXsXsXsXsXsXsXsXsXsXsXsXsXI U / 4 O j 1._ M.T H G U G P P P sXsXsXsXsXsXsXsXsXsXsXsXsXsXsXsXsXsXsXsXsXsXsXsXsXsXsX",
"sXsXsXsXsXsXsXsXsXsXsXsXsXsXsXsXsXsXsXm.v.T A 1 . w +.W T D R v.n.n.x.j.F 3 < sXsXsXsXsXsXsXsXsXsXsXsXsXsXsXsXsXsXsXsXsXsXsXsXsX",
"sXsXsXsXsXsXsXsXsXsXsXsXsXsXsXsXsXsXl.n.j.I A # = d.:.R l.v.R T l.v.I F 4 3 sXsXsXsXsXsXsXsXsXsXsXsXsXsXsXsXsXsXsXsXsXsXsXsXsXsX",
"sXsXsXsXsXsXsXsXsXsXsXsXsXsXsXsXsXsX4 I b.v.H # j g.j ! n.N.N.M.! Z j.P C Z sXsXsXsXsXsXsXsXsXsXsXsXsXsXsXsXsXsXsXsXsXsXsXsXsXsX",
"sXsXsXsXsXsXsXsXsXsXsXsXsXsXsXsXsXsXC Q o.K.A = 1.1.> y #.L.A.B.! ! B.G F C 3 sXsXsXsXsXsXsXsXsXsXsXsXsXsXsXsXsXsXsXsXsXsXsXsXsX",
"sXsXsXsXsXsXsXsXsXsXsXsXsXsXsXsXsXsXt a i r.K e ].| q :.2.M >.P.@.G x.z.I J 0 sXsXsXsXsXsXsXsXsXsXsXsXsXsXsXsXsXsXsXsXsXsXsXsXsX",
"sXsXsXsXsXsXsXsXsXsXsXsXsXsXsXsXsXsXf.c &.4.W l g.k t X.;.m %.P.W.< E B.T.[.y.sXsXsXsXsXsXsXsXsXsXsXsXsXsXsXsXsXsXsXsXsXsXsXsXsX",
"sXsXsXsXsXsXsXsXsXsXsXsXsXsXsXsXsXsX(. .#.! 9 ; ;.$ 5 x.C.I.I.W.( = S x.E.-X'.!.sXsXsXsXsXsXsXsXsXsXsXsXsXsXsXsXsXsXsXsXsXsXsXsX",
"sXsXsXsXsXsXsXsXsXsXsXsXsXsXsXsXsXsXX.H C C + - N X # G R H ` ` 7 = 7 n.L.h.2.*.sXsXsXsXsXsXsXsXsXsXsXsXsXsXsXsXsXsXsXsXsXsXsXsX",
"sXsXsXsXsXsXsXsXsXsXsXsXsXsXsXsXsXsXz.P 3 4 O i N o < 4 3 3 4 4 5 6 sXn.z.S 4 3 sXsXsXsXsXsXsXsXsXsXsXsXsXsXsXsXsXsXsXsXsXsXsXsX",
"sXsXsXsXsXsXsXsXsXsXsXsXsXsXsXsXsXsXl.U 3 3 . k m o < 4 1 4 4 4 sXsXsXsXn.D 4 4 sXsXsXsXsXsXsXsXsXsXsXsXsXsXsXsXsXsXsXsXsXsXsXsX",
"sXsXsXsXsXsXsXsXsXS.S.p sXsXsXsXsXT k.U 4 <   N i o < 4 1 4 4 sXsXsXsXsXv.D 4 4 sXsXsXsXsXsXsXsXsXsXsXsXsXsXsXsXsXsXsXsXsXsXsXsX",
"sXsXsXsXsXsXsXsXsXsXO.v h g sXsXsXz.n.F 4 1 * :.r 5 4 4 3 4 3 sXsXsXsXsXk.D C 4 3 sXsXsXsXsXsXsXsXsXsXsXsXsXsXsXsXsXsXsXsXsXsXsX",
"sXsXsXsXsXsXsXsXsXsXsXsXsXm j j 4.M.z.F T T ( X.z.I ~ I 3 4 3 sXsXsXsXsXn.I 4 3 < sXsXsXsXsXsXsXsXsXsXsXsXsXsXsXsXsXsXsXsXsXsXsX",
"sXsXsXsXsXsXsXsXsXsXsXsXsXsXsXr.e.M.T P T C.H.V.z.Z l.I 3 4 3 sXsXsXsXsXM._ 5.w.%.sXsXsXsXsXsXsXsXsXsXsXsXsXsXsXsXsXsXsXsXsXsXsX",
"sXsXsXsXsXsXsXsXsXsXsXsXsXsXsX{.A.x.D j.R H.W.D.b.Z z.E 3 4 4 sXsXsXsXsXm.c.|.&X/.u.sXsXsXsXsXsXsXsXsXsXsXsXsXsXsXsXsXsXsXsXsXsX",
"sXsXsXsXsXsXsXsXsXsXsXsXsXsXsXZ.x.Q F ! 0 U.H.` 7 # z.k.3 7 8 = = sXsXsXm._ 5.f.~.!.sXsXsXsXsXsXsXsXsXsXsXsXsXsXsXsXsXsXsXsXsXsX",
"sXsXsXsXsXsXsXsXsXsXsXsXsXsXk.m.k.v [ 0 ) P.G.` X # ' / 6 = = = = * sXsXm.U 4 # d ,.sXsXsXsXsXsXsXsXsXsXsXsXsXsXsXsXsXsXsXsXsXsX",
"sXsXsXsXsXsXsXsXsXsXsXsXsXsX^ K t M M c p p +.a ; h v q = = = = < = ; K M.G 3 @ O % sXsXsXsXsXsXsXsXsXsXsXsXsXsXsXsXsXsXsXsXsXsX",
"sXsXsXsXsXsXsXsXsXsXsXsXsXsX; - ,.:.v } v v b i v } } c = 8 1 4 3 6 ; r ^ 6 @ $ X O sXsXsXsXsXsXsXsXsXsXsXsXsXsXsXsXsXsXsXsXsXsX",
"sXsXsXsXsXsXsXsXsXsXsXsXsXsXl h {.Y.F p >.(.h.| } v c ^ F 3 4 4 4 3 & % - ; ; ; X X sXsXsXsXsXsXsXsXsXsXsXsXsXsXsXsXsXsXsXsXsXsX",
"sXsXsXsXsXsXsXsXsXsXsXsXsX0.n k f.K._ 1.7X&X+Xw.x p p / _ 4 4 4 4 4 1 6 n 8.e.;.l - , ; sXsXsXsXsXsXsXsXsXsXsXsXsXsXsXsXsXsXsXsX",
"sXsXsXsXsXsXsXsXsXsXsXsX/.%.h e ! L. X-X3X;X`.7.p c B v v a 7 3 4 4 r d f.+X#./ 8.d ; , , ; ; sXsXsXsXsXsXsXsXsXsXsXsXsXsXsXsXsX",
"sXsXsXsXsXsXsXsXsXsXsXsXsXh ; h T.=X-X-X&X_.,.n = i v v B x q 6 e | h 6 k h.>.*.3.u & % ; ; ; ; ; sXsXsXsXsXsXsXsXsXsXsXsXsXsXsX",
"sXsXsXsXsXsXsXsXsXsXsXsXsXsXk r.%X-X-X{.i.2.N 1.<.1. .W [ r = = ;.a.i = i k &.&.l w & + & % - ; ; > , - sXsXsXsXsXsXsXsXsXsXsXsX",
"sXsXsXsXsXsXsXsXsXsXsXsXsXsX| `.{.+Xd.d : g : h m k ^ m.x.R 3 z a.%.= = - : > q V 6.%.O + + + & % ; , , , , sXsXsXsXsXsXsXsXsXsX",
"sXsXsXsXsXsXsXsXsXsXsXsXsXv v ;.8.*.$     . . . X $ 9 M.N.N.I 5 t 9 < = = = = l =.y.y.sXsXsX} f J J 9 u ; , $ sXsXsXsXsXsXsXsXsX",
"sXsXsXsXsXsXsXsXsXsXsXsXsXv x K j.E X   - * . . = : e v.N.N.k.4 4 4 4 3 5 1 l 6.y./.5XiXiXiXuXwX|.5.{ J 0 u <.9X3X}.s.sXsXsXsXsX",
"sXsXsXsXsXsXsXsXsXsXsXsXsXsXL x.N.P   - d ;     ; w w k.N.N.M.G 4 4 4 4 4 4 M 9./.eXiXiXiXiXiXiXiXuX7X[.T.[.tXiXiXuXqX;X'.p.sXsX",
"sXsXsXsXsXsXsXsXsXsXsXsXsXsXv.N.N.Z $ w w q X   - g w c.N.N.N.j.4 4 4 4 4 3 e 7.*XpXiXiXiXiXiXiXiXiXiXiXpXiXiXiXiXiXiXiXqX/.a.sX",
"sXsXsXsXsXsXsXsXsXsXsXsXsXsX~ b.z.y > w d > X X - > d W v.k.j.P 1 # # @ @ . $ m 8.'.-XrXiXiXiXiXiXiXiXiXiXiXiXiXiXiXiXyXoXt.6.sX",
"sXsXsXsXsXsXsXsXsXsXsXsXsXsX> e y d d w w d *   $ > w p e % X . .       o X o @ 9 sX6.p.oX7XyXiXiXiXiXiXpXiXiXiXiXiXtX}.t.6.sXsX",
"sXsXsXsXsXsXsXsXsXsXsXsXsXsX> > d w w w w w ;   X > i > > - . . . . . . . . . . sX3 sXsX-.t./.%XwXyXiXiXiXiXiXiXuX5X/.t.6.sXsXsX",
"sXsXsXsXsXsXsXsXsXsXsXsXsXsX> > w w w w w w > X . : > g i : . . . . . . . . . . sXsX3 sXsXsXsX6.u.'.&X5XqXqXwX3X'.y.t.sXsXsXsXsX",
"sXsXsXsXsXsXsXsXsXsXsXsXsXsX> > w w i w w w > X . ; g > w > X . . . . . . . . .   sXsX3 sXsXsXsXsXsX6.9.u.a.a.t.6.6.sXsXsXsXsXsX",
"sXsXsXsXsXsXsXsXsXsXsXsXsXsX> > w w w w w w w $   - w i > g - . . . . . . . . .   sXsX3 3 sXsXsXsXsXsXsXsXsXsXsXsXsXsXsXsXsXsXsX",
"sXsXsXsXsXsXsXsXsXsXsXsXsX: > w > i > w w w w ; . $ > g w w ; . . . . . . . . . . . sXsXA sXsXsXsXsXsXsXsXsXsXsXsXsXsXsXsXsXsXsX",
"sXsXsXsXsXsXsXsXsXsXsXsXsXw ; > i d g w w w w : . X > w w w : . . . . . . . . . . o sXsXE l.sXsXsXsXsXsXsXsXsXsXsXsXsXsXsXsXsXsX",
"sXsXsXsXsXsXsXsXsXsXsXsXsX> - : i > w w w w w > X . > i > g > X . . . . . . . . . . sXsXsXZ.sXsXsXsXsXsXsXsXsXsXsXsXsXsXsXsXsXsX",
"sXsXsXsXsXsXsXsXsXsXsXsXsXw $ - w w w w w w w w $ . : d g > i - . . . . . . . . . . o sXsX{.sXsXsXsXsXsXsXsXsXsXsXsXsXsXsXsXsXsX",
"sXsXsXsXsXsXsXsXsXsXsXsXsXw X $ g w w w w w w w - . ; > > g i ; . . . . X X X . . . . sXsX+XsXsXsXsXsXsXsXsXsXsXsXsXsXsXsXsXsXsX",
"sXsXsXsXsXsXsXsXsXsXsXsXsX> X X > > w w w w w w : . - i w w d > X . . . . X $ X . . . o sX/.sXsXsXsXsXsXsXsXsXsXsXsXsXsXsXsXsXsX",
"sXsXsXsXsXsXsXsXsXsXsXsX> > X . : i w w w w w w > X $ g w w w > X . . . . . * $ X . . . sXsXsXsXsXsXsXsXsXsXsXsXsXsXsXsXsXsXsXsX",
"sXsXsXsXsXsXsXsXsXsXsXsX> ; . . ; w w i d w w w > $ X > w w w i ; . . . . . $ * $ . . .   sXsXsXsXsXsXsXsXsXsXsXsXsXsXsXsXsXsXsX",
"sXsXsXsXsXsXsXsXsXsXsXsXw - . . - w w w w w w w w - X > w w w w : . . . . . X - * $       sXsXsXsXsXsXsXsXsXsXsXsXsXsXsXsXsXsXsX",
"sXsXsXsXsXsXsXsXsXsXsXsXg $ o   X > d w w w w w i : . : w w w w > X . . . . . * * * $     sXsXsXsXsXsXsXsXsXsXsXsXsXsXsXsXsXsXsX",
"sXsXsXsXsXsXsXsXsXsXsXsX{.;.$., @ q e w w w w w > > X ; w w w w g * . . . . . X = % = 8 sXsXsXsXsXsXsXsXsXsXsXsXsXsXsXsXsXsXsXsX",
"sXsXsXsXsXsXsXsXsXsX;X-X;X-X+X7.5 1 2 ; * = sXsXsXsXsXsXsXw w w > - . . .   % e 3 y ^ ( sXsXsXsXsXsXsXsXsXsXsXsXsXsXsXsXsXsXsXsX",
"sXsXsXsXsXsXsXsXsXsX&X%X#XoX'.u.z sXsXsXsXsXsXsXsXsXsXsXsXsXsXsXsXsXsXsXsXsXsXsXsX2.i.,.sXsXsXsXsXsXsXsXsXsXsXsXsXsXsXsXsXsXsXsX",
"sXsXsXsXsXsXsXsXsXsXsX/.!.u.u.sXsXsXsXsXsXsXsXsXsXsXsXsXsXsXsXsXsXsXsXsXsXsXsXsXsXsX~.0.sXsXsXsXsXsXsXsXsXsXsXsXsXsXsXsXsXsXsXsX",
"sXsXsXsXsXsXsXsXsXsXsXsXsXsXsXsXsXsXsXsXsXsXsXsXsXsXsXsXsXsXsXsXsXsXsXsXsXsXsXsXsXsX~.9.sXsXsXsXsXsXsXsXsXsXsXsXsXsXsXsXsXsXsXsX",
"sXsXsXsXsXsXsXsXsXsXsXsXsXsXsXsXsXsXsXsXsXsXsXsXsXsXsXsXsXsXsXsXsXsXsXsXsXsXsXsXsXsXu.sXsXsXsXsXsXsXsXsXsXsXsXsXsXsXsXsXsXsXsXsX"
};
