/* XPM */
static char *cad67f40e22a4243df8658da9be12fe0pk4nxaSgeVObRjUv[] = {
/* columns rows colors chars-per-pixel */
"64 64 234 2 ",
"   c 0",
".  c #1B0E16",
"X  c #1D0F18",
"o  c #150C14",
"O  c #1C131A",
"+  c #19161B",
"@  c #220F19",
"#  c #25111C",
"$  c #29121F",
"%  c #2D1E1B",
"&  c #231B1D",
"*  c #321E1A",
"=  c #381819",
"-  c #34221B",
";  c #39251E",
":  c #392A1E",
">  c #2D251E",
",  c #1A1A23",
"<  c #2C1422",
"1  c #2E1925",
"2  c #251C24",
"3  c #321625",
"4  c #331A26",
"5  c #351C2B",
"6  c #3C1C2C",
"7  c #3F1B31",
"8  c #242223",
"9  c #2C2524",
"0  c #2A292A",
"q  c #26242A",
"w  c #342423",
"e  c #3A2620",
"r  c #3D2A23",
"t  c #352A2A",
"y  c #3B362B",
"u  c #2B2B37",
"i  c #3B2735",
"p  c #3C3639",
"a  c #3B3736",
"s  c #1C2331",
"d  c #460813",
"f  c #540715",
"g  c #550816",
"h  c #590817",
"j  c #550C19",
"k  c #5C0B1A",
"l  c #5A0718",
"z  c #441218",
"x  c #54121B",
"c  c #630B1C",
"v  c #6B0B1E",
"b  c #64071A",
"n  c #551523",
"m  c #431E33",
"M  c #4F1628",
"N  c #6C0D20",
"B  c #620D20",
"V  c #740B21",
"C  c #641422",
"Z  c #691223",
"A  c #422D25",
"S  c #442E2A",
"D  c #482B2C",
"F  c #443127",
"G  c #45322A",
"H  c #4A342C",
"J  c #4D392E",
"K  c #48352B",
"L  c #51352E",
"P  c #50392F",
"I  c #472537",
"U  c #4D3932",
"Y  c #4C3C39",
"T  c #463736",
"R  c #523631",
"E  c #533B33",
"W  c #5A3D35",
"Q  c #5B3D3A",
"!  c #542437",
"~  c #494438",
"^  c #554235",
"/  c #56423A",
"(  c #5B443B",
")  c #5D4A3C",
"_  c #594236",
"`  c #575A37",
"'  c #4C4E2C",
"]  c #61453D",
"[  c #634A3F",
"{  c #6C4B3E",
"}  c #634437",
"|  c #685A3C",
" . c #596333",
".. c #676939",
"X. c #6A7738",
"o. c #64702C",
"O. c #515B1E",
"+. c #373747",
"@. c #2D3343",
"#. c #483744",
"$. c #53384B",
"%. c #4A3854",
"&. c #673246",
"*. c #3B4153",
"=. c #484448",
"-. c #574947",
";. c #464758",
":. c #5B4959",
">. c #595159",
",. c #4A515C",
"<. c #644C43",
"1. c #6B4D43",
"2. c #674C49",
"3. c #6B534B",
"4. c #665349",
"5. c #745346",
"6. c #73554B",
"7. c #775C4A",
"8. c #685957",
"9. c #735D54",
"0. c #7B5C52",
"q. c #785D59",
"w. c #6C494D",
"e. c #7B7547",
"r. c #7A6258",
"t. c #707248",
"y. c #444B63",
"u. c #4A4F65",
"i. c #4D546B",
"p. c #4A5166",
"a. c #5B5D6B",
"s. c #545769",
"d. c #535A73",
"f. c #5A5D74",
"g. c #555E78",
"h. c #4D5974",
"j. c #655667",
"k. c #635E77",
"l. c #5C637B",
"z. c #5B6174",
"x. c #6D616E",
"c. c #60626E",
"v. c #626373",
"b. c #66697C",
"n. c #6A6C7D",
"m. c #666778",
"M. c #75697A",
"N. c #756C72",
"B. c #83655A",
"V. c #817B49",
"C. c #866A63",
"Z. c #8A7267",
"A. c #94796C",
"S. c #94746B",
"D. c #875C54",
"F. c #7A8B49",
"G. c #7C924A",
"H. c #788270",
"J. c #82974C",
"K. c #869A54",
"L. c #8D8A5A",
"P. c #8CA45C",
"I. c #88A757",
"U. c #8DB25D",
"Y. c #94B45E",
"T. c #81A24D",
"R. c #91946A",
"E. c #8CA666",
"W. c #93AC62",
"Q. c #95A669",
"!. c #95B364",
"~. c #9BBC65",
"^. c #9BBD6B",
"/. c #96B867",
"(. c #9FAE72",
"). c #A1BD6E",
"_. c #9AC26D",
"`. c #9EC066",
"'. c #9EC472",
"]. c #A2C46C",
"[. c #A5C86C",
"{. c #A2C674",
"}. c #A4CA72",
"|. c #A6CE79",
" X c #A9CC75",
".X c #A6D27B",
"XX c #ABD47C",
"oX c #ACD479",
"OX c #5D6682",
"+X c #556384",
"@X c #646C84",
"#X c #656E8A",
"$X c #696B83",
"%X c #6B7186",
"&X c #6B738C",
"*X c #72768A",
"=X c #747584",
"-X c #6B7593",
";X c #6B7795",
":X c #737A94",
">X c #7B7E93",
",X c #737D9B",
"<X c #817B85",
"1X c #7B829C",
"2X c #7A819A",
"3X c #7F8383",
"4X c #7B85A3",
"5X c #7C87A8",
"6X c #7F90B5",
"7X c #81869D",
"8X c #88899E",
"9X c #8E9B80",
"0X c #93A588",
"qX c #838AA4",
"wX c #838CAC",
"eX c #848BA6",
"rX c #8A91AC",
"tX c #8991AB",
"yX c #8A93B3",
"uX c #8C97B8",
"iX c #939CBD",
"pX c #9199B4",
"aX c #838FB6",
"sX c #99A2BD",
"dX c #9DA3A8",
"fX c #ADD582",
"gX c #B4DA89",
"hX c #C5E99B",
"jX c #919DC3",
"kX c #9BA4C5",
"lX c #96A4C7",
"zX c #9AACD2",
"xX c #A5ACC9",
"cX c #A6B1D3",
/* pixels */
"                                                      8                                                                         ",
"                                                + o + , + 8 8 8                                                                 ",
"          q 9 0 t p p T                       + 9 r E <.1.2.Y 0 q                                                               ",
"        y R Q Q 3.q.N.-.p                     9 W { 5.5.1.2.q.8.Y                                                               ",
"      9 W { 5.5.5.w.9.q.-.                    1 H A D 1.W H 5.A.C.D.                                                            ",
"      w D A D R E t D 6.N.1.                    R R W 5.0.1.5.Z.A.                                                              ",
"        L L D } w.Q E <.C.                        Q L G ( 2.} 0.A.                                                              ",
"        L H A D D G F H 3.a                         G H E ( <.1.B.                                                              ",
"            S R E W ( / ) T + s                       G A A P [ 5.B.                                                            ",
"            2 t S r S D R w , , +XzXjX6XjXzXzXzX        H J _ { { 7.B.C.&.I I                                                   ",
"        1X@.o 9 r e A D y q + , y.jXjX+X;X6X5X5X6XxX  m I G L W ] ( Q I 6 5 7 m m m I I                                         ",
"    qXiX,X@.+.-.Y H L -.k.h.+.h.,X,X;X+X+X-X5XOX%.$.m 6 3 3 4 4 4 3 < 1 3 3 3 3 3 3 4 5 m                                       ",
"  8X%X7X>Xb.*X%Xm.8.x.b.%X:X4XyX,X-X-X,X#XOXf.+.3 3 3 3 3 3 $ < < < 3 < 3 3 3 3 < < $ $ < m                                     ",
"  m.b.m.2X7X2X*X:X#X#X@X-X:XkXkXkXaX<XjX#Xy.%.< < < < 3 5 5 6 6 t I i i I i 5 5 < $ $ $ @ 7 #.                                  ",
"    %X7X7XiXxXsXqX;X5X4X4XuXiXaXlXlX,X+XOXu.@.< < -.x.x.=Xj.<X<XM.j.x.M.M.M.j.w $ X . @ . $ 7 7                                 ",
"    m.7XqXpXeXxXxX,XwXcXaX;X,XuXlXjX;Xi.OXi.@.O 1 x.M.j.N.j.j.j.j.k.j.j.$.#.I < $ . o . X X 3 5                                 ",
"    c.%XtX;XyXrXqX@X+XwXkX4XwXyX,X-XOXp.y.y.u , O i #.+.#.:.>.j.#.i p i 4 $ $ $ $ . o . . @ $ 6                                 ",
"  w p ;.>XqXrX>X:X,X,XeXwXqXpX4X;X&X&X#Xy.+.+.u o . 1 T #.-.#.>.=.=.I 4 $ $ < $ $ . o . . @ 2 3 I                               ",
"H A w t m.7XpXpXyXxXkX,X,XiXxXjXiX,X@XOXp.;.+.2 o . $ 1 < < < < 3 1 1 $ $ $ 3 $ $ $ O 2 $ w D (                                 ",
"G A e w v.rXsXcXjX5XiXiXuXjX5X5XiXyXg.d.@X;.@.+.  & $ $ < $ < $ < < $ $ 1 $ $ 3 3 $ < 6   R W [ 9.                              ",
"r ;       %X*XxXkX-XuXcXwX;X5XuX5X4Xp.y.g.d.;.;.    $ # $ $ $ $ $ $ $ < < 3 < $ 3 3 < 6   H E ] 6.                              ",
"          =X>X7X1X#X,XkXjXwXiX4X-X+Xl.i.g.s.s.c.N.4 1 $ $ $ $ $ $ $ @ $ $ 3 < 1 < 3 4 I     R -.3.B.                            ",
"          M.=X*X:X4X1X4X;XyXyX5X,X&X2X&Xi.u.c.m.>Xi $ $ $ @ # # @ $ < $ 3 $ $ 3 3 3 3       J ] 1.B.                            ",
"          m.>X7X>XeX%XOX&XpXrX5X5X@Xl.z.i.i.a.s.j.4 $ $ @ $ # # @ $ @ $ $ $ 1 < < 3 3       L Q 1.q.                            ",
"          m.=X2X=Xz.>X2X&X&X@X&XeX1Xd.d.$Xu.;.s.i @ < $ # $ @ @ @ $ $ $ $ $ $ < < < <       L W 1.0.                            ",
"            a.=X=X,.m.2X@Xd.@X>X:X&Xg.p.@Xg.p.s.< # $ $ # $ # @ @ @ $ $ # # @ @ $ @ $ 1       W { 0.                            ",
"            >.z.a.,.,.n.*X%X>X&Xl.z.l.g.@X@Xg.%.$ $ $ $ $ # @ # $ # # # # @ # # 2 $ $ 1       W 1.0.                            ",
"            s.j.a.v.v.a.f.%XeX>X2X&X%X&Xg.u.i.f.5 $ @ X @ X # & < @ . . . @ O # # # # & $     W 1.0.                            ",
"          n.m.$X*Xm.k.@Xl.2X,X:X5X2X$XOXk.g.%.;.5 # @ $ # @ @ @ @ O o o o O & 9 y y ` a U     S T >.dX                          ",
"          =Xb.%X7X8Xk.qX2X@X+X-X2XqX,X$X$Xj.+.#.5 X @ @ @ @ + & @ & 0 ~ ` ' F.E.'..XfX_.'.).  H R Y 7X                          ",
"          &.w.j.M.m.s.=XtX&X&X<Xk.:.:.&.Z B B j = t ~ ` `  .'  ...H.G..XU.U.U./._..X.XXXXX|.Q.{ { 5.                            ",
"          c b B n ! $.:.j.j.j.&.n j N V V V B j 4.W.~.}.[.'.I.G./.0X_._.'._.U./.{.{..X|.{.E.7.{ 5.D.Z.                          ",
"          c b k l l k j g f h b b b c b v v h x K.oX[.}.[.U.`.I.E.0XU.'.fX_..X.XXX{.|._.W.e.{ 5.0.D.C.                          ",
"            c c h k g g g f f f h g h v v v c x X. X[.`.[.`.U.I./.0XG._..X.XfX|.XXfXfX|.P.5.L.0.{ { 1.                          ",
"            v c b b b k l h k h c c v v V N c h | [. X`.`.'.].T.E.Q.G.G.~.].}..X|.|.).|.W.L.L.5.} }                             ",
"            v c v c k b c b c k g h c v N N k h V.).[.`.Y.T.Y.~.W.H.t.o.F.J.K.~.^.).|.{.!.P.P.(.                                ",
"            c B B c k B c Z c g d c v N N C k x V.).).Y.^.!.I.J.J.F.o.O.X.K.P.P.W.!.{.{.|.fXgXhX                                ",
"            k k k k C c c c c j d k N N N C C k V.~.).~./.T.W.J.G.X.o. .X.  F.J.Y.^.^./.|.gXgXhX                                ",
"                    x z x k k g z x C C c x j z |  X XW.U.K.G.X.o. .' ' 4.    G.P.P.!.^.(.Q.R.R.                                ",
"                      % - * = = : F L ^ L A - = -       y : e ; ; ; r U (       ^ ) [ [ ( ) 1.6.                                ",
"                        - - * - ; F G E L F e ; y         % - r r r A E <.      F H L W W W 1.5.                                ",
"                        - * % - ; : A D L G A A K           - e r ; r H /         G L L E W ( 1.                                ",
"                          - % - - ; F A A A A S K           * - ; r A J E         A H H L R _ )                                 ",
"                          - * - - A / S ; r S S H             - * - ; A E           A A H E _ <.                                ",
"                          : A : e A )   ; A A r G U           - - * e A U           ; D H L / 2.r.                              ",
"                          S S r r H )     r S G G G Y           w % - r J             ; ; A E ( 3.                              ",
"                          S S A S F /     r F K G S G           - e ; r H ^             - - ; H / 7.                            ",
"                          A r A S F E     r r F F A A G         - e r G H E               - ; G E [ r.                          ",
"                          r S A F F       ; r S F F r F           ; : A K E _             - ; S K / 3.                          ",
"                          A r F r K         ; : F A r G           - ; S F K ^               ; : G K )                           ",
"                          A G G K ^           : : A r K             - : S K ^               ; ; r K _ )                         ",
"                          H J K J ^           ; : r F K               - e F J )             - ; : F U )                         ",
"                          J L J U )             A F F J               - ; F G ^               ; : A H /                         ",
"                          J E E ^               A H F J                 ; F H E               - ; A H _                         ",
"                          R / <.4.              F F H J                   A K ^ <.              : F J /                         ",
"                      2 + 9 U / 4.              F H H P                   r H ( 9.              ; A J /                         ",
"                  r G T a & + 8 0 -.            S t y T                     H ( r.                G U (                         ",
"        -.T t , 0 Y <.4.-.G 8 0 =.8.            & 9 9 0 8 8                 E [ 9.r.              K ^ ) 3.                      ",
"        y y y 8 8 9 / -.~ a                     t U Y t 0 0               -.3.r.r.Z.R.            J ( 3.0.                      ",
"                                                w t t t 8 0           +.=.=.=.=.$.2.8.            E <.r.A.                      ",
"                                              t y ~ T =.p a a =.,.4.9.-.4.-.=.u q                   ( r.N.9X                    ",
"                                                9 y 9             p a                               u =.=.s.x.Z.8.              ",
"                                                                                                      ~ 4.4.8.8.;.              ",
"                                                                                                        p p p -.                "
};
